<?xml version="1.0" standalone="no"?>
<!DOCTYPE svg PUBLIC "-//W3C//DTD SVG 20010904//EN"
 "http://www.w3.org/TR/2001/REC-SVG-20010904/DTD/svg10.dtd">
<svg version="1.0" xmlns="http://www.w3.org/2000/svg"
 width="200.000000pt" height="200.000000pt" viewBox="0 0 200.000000 200.000000"
 preserveAspectRatio="xMidYMid meet">
<metadata>
Created by potrace 1.14, written by Peter Selinger 2001-2017
</metadata>
<g transform="translate(0.000000,200.000000) scale(0.100000,-0.100000)"
fill="#000000" stroke="none">
<path d="M0 1000 l0 -1000 84 0 83 0 6 77 c21 286 203 546 470 674 130 61 190
74 357 74 163 0 227 -13 347 -69 275 -130 458 -390 480 -678 l6 -78 83 0 84 0
0 1000 0 1000 -1000 0 -1000 0 0 -1000z"/>
<path d="M878 411 c-31 -10 -77 -30 -100 -44 -102 -59 -191 -194 -204 -309
l-7 -58 432 0 432 0 -7 48 c-39 269 -298 442 -546 363z"/>
</g>
</svg>
